<svg width="34" height="34" viewBox="0 0 34 34" fill="none" xmlns="http://www.w3.org/2000/svg">
<g clip-path="url(#clip0)">
<path d="M33.4953 12.2895C33.0463 11.7262 32.3727 11.4031 31.6472 11.4031H25.0992L21.5486 3.27276C21.3284 2.76867 20.7413 2.53831 20.2371 2.75858C19.733 2.97871 19.5027 3.56594 19.7229 4.0701L22.9254 11.4031H11.0746L14.2771 4.0701C14.4972 3.56594 14.2671 2.97878 13.7629 2.75858C13.2588 2.53831 12.6716 2.76854 12.4514 3.27276L8.90077 11.4031H2.35284C1.62729 11.4031 0.953731 11.7262 0.504758 12.2895C0.0640198 12.8426 -0.0986091 13.5535 0.0585745 14.2403L3.55533 29.5137C3.7995 30.5802 4.74294 31.325 5.8496 31.325H28.1504C29.2571 31.325 30.2005 30.5802 30.4447 29.5137L33.9414 14.2402C34.0986 13.5534 33.936 12.8425 33.4953 12.2895ZM28.1504 29.3328H5.8496C5.68046 29.3328 5.53231 29.2219 5.49731 29.069L2.00056 13.7957C1.97313 13.6758 2.01915 13.5857 2.06272 13.5311C2.10309 13.4804 2.19453 13.3953 2.35284 13.3953H8.03078L7.76987 13.9928C7.54973 14.4969 7.7799 15.0841 8.28405 15.3043C8.41381 15.361 8.54901 15.3879 8.68216 15.3879C9.06612 15.3879 9.43202 15.1645 9.59551 14.7902L10.2047 13.3955H23.7955L24.4046 14.7902C24.5681 15.1646 24.934 15.3879 25.318 15.3879C25.4511 15.3879 25.5863 15.361 25.7161 15.3043C26.2202 15.0842 26.4505 14.4969 26.2303 13.9928L25.9694 13.3953H31.6473C31.8056 13.3953 31.8971 13.4804 31.9374 13.5311C31.9809 13.5857 32.027 13.6759 31.9996 13.7956L28.5028 29.0691C28.4678 29.2219 28.3195 29.3328 28.1504 29.3328Z" fill="#E5E5E5"/>
<path d="M11.0234 17.7117C10.4733 17.7117 10.0273 18.1577 10.0273 18.7078V26.0125C10.0273 26.5626 10.4733 27.0085 11.0234 27.0085C11.5735 27.0085 12.0195 26.5626 12.0195 26.0125V18.7078C12.0195 18.1577 11.5736 17.7117 11.0234 17.7117Z" fill="#E5E5E5"/>
<path d="M17 17.7117C16.4499 17.7117 16.0039 18.1577 16.0039 18.7078V26.0125C16.0039 26.5626 16.4499 27.0085 17 27.0085C17.5501 27.0085 17.9961 26.5626 17.9961 26.0125V18.7078C17.9961 18.1577 17.5501 17.7117 17 17.7117Z" fill="#E5E5E5"/>
<path d="M22.9766 17.7117C22.4265 17.7117 21.9805 18.1577 21.9805 18.7078V26.0125C21.9805 26.5626 22.4265 27.0085 22.9766 27.0085C23.5267 27.0085 23.9727 26.5626 23.9727 26.0125V18.7078C23.9726 18.1577 23.5267 17.7117 22.9766 17.7117Z" fill="#E5E5E5"/>
</g>
<defs>
<clipPath id="clip0">
<rect width="34" height="34" fill="white"/>
</clipPath>
</defs>
</svg>
