<svg width="67" height="54" viewBox="0 0 67 54" fill="none" xmlns="http://www.w3.org/2000/svg">
<path d="M64.7516 7.302L60.055 7.30178V2.45727C60.055 1.34814 59.2407 0.405813 58.1398 0.241714C57.9476 0.212941 53.3722 -0.449298 47.8627 0.54968C41.7206 1.6633 36.8221 4.40959 33.4999 8.56129C30.1774 4.40959 25.279 1.6633 19.1371 0.54968C13.6273 -0.449073 9.05196 0.212941 8.85999 0.241714C7.75912 0.406038 6.94474 1.34837 6.94474 2.45727V7.30178H2.24821C1.0068 7.30178 0 8.30502 0 9.54228V51.7595C0 52.4849 0.352369 53.1653 0.945892 53.5857C1.53942 54.006 2.30033 54.1139 2.98769 53.8752C3.15643 53.817 20.0041 48.0875 32.5669 53.7976C33.1597 54.0672 33.8403 54.0672 34.4331 53.7976C46.9607 48.1037 63.8445 53.8174 64.0123 53.8752C64.2532 53.9588 64.5027 54 64.7513 54C65.2122 54 65.6684 53.8588 66.0541 53.5859C66.6476 53.1655 67 52.4851 67 51.7597V9.54251C66.9998 8.30525 65.9932 7.302 64.7516 7.302ZM4.49665 48.7618V11.7826H6.94474V41.6184C6.94474 42.2694 7.23056 42.8876 7.72483 43.3131C8.21909 43.7386 8.87646 43.9295 9.52254 43.8344C9.64661 43.8164 19.4137 42.4802 26.5495 47.3589C17.7595 45.8611 8.96195 47.5936 4.49665 48.7618ZM31.2517 45.3385C28.1088 42.5088 24.015 40.5954 19.1371 39.711C16.7896 39.2853 14.6118 39.1612 12.8703 39.1612C12.3532 39.1612 11.8745 39.1722 11.4416 39.1895V4.51457H11.4414C15.7625 4.32035 26.2743 4.78073 31.2517 13.1886V45.3385ZM35.7481 13.1889C40.7077 4.81692 51.2359 4.33564 55.5584 4.52019V39.1895C53.6673 39.1135 50.9067 39.1589 47.8627 39.711C42.9848 40.5954 38.891 42.5086 35.7481 45.3385V13.1889ZM40.4428 47.3603C47.5795 42.4787 57.3518 43.8162 57.4736 43.8342C58.1213 43.9311 58.7782 43.7413 59.274 43.316C59.7699 42.8903 60.055 42.2707 60.055 41.6184V11.7828H62.5031V48.7618C58.0365 47.5932 49.2354 45.86 40.4428 47.3603Z" fill="#E1E1E1"/>
</svg>
