<svg width="63" height="63" viewBox="0 0 63 63" fill="none" xmlns="http://www.w3.org/2000/svg">
<path d="M31.5 0C14.103 0 0 14.103 0 31.5C0 48.897 14.103 63 31.5 63C48.897 63 63 48.897 63 31.5C63 14.103 48.897 0 31.5 0ZM31.5 59.0625C16.2776 59.0625 3.9375 46.7224 3.9375 31.5C3.9375 16.2776 16.2776 3.9375 31.5 3.9375C46.7224 3.9375 59.0625 16.2776 59.0625 31.5C59.0625 46.7224 46.7224 59.0625 31.5 59.0625Z" fill="#E1E1E1"/>
<path d="M31.5 35.4375C33.6746 35.4375 35.4375 33.6746 35.4375 31.5C35.4375 29.3254 33.6746 27.5625 31.5 27.5625C29.3254 27.5625 27.5625 29.3254 27.5625 31.5C27.5625 33.6746 29.3254 35.4375 31.5 35.4375Z" fill="#E1E1E1"/>
<path d="M45.2812 35.4375C47.4559 35.4375 49.2188 33.6746 49.2188 31.5C49.2188 29.3254 47.4559 27.5625 45.2812 27.5625C43.1066 27.5625 41.3438 29.3254 41.3438 31.5C41.3438 33.6746 43.1066 35.4375 45.2812 35.4375Z" fill="#E1E1E1"/>
<path d="M17.7188 35.4375C19.8934 35.4375 21.6562 33.6746 21.6562 31.5C21.6562 29.3254 19.8934 27.5625 17.7188 27.5625C15.5441 27.5625 13.7812 29.3254 13.7812 31.5C13.7812 33.6746 15.5441 35.4375 17.7188 35.4375Z" fill="#E1E1E1"/>
</svg>
